<svg id="Group_98" data-name="Group 98" xmlns="http://www.w3.org/2000/svg" xmlns:xlink="http://www.w3.org/1999/xlink" width="22.152" height="34.267" viewBox="0 0 22.152 34.267">
    <defs>
        <clipPath id="clip-path">
            <rect id="Rectangle_419" data-name="Rectangle 419" width="22.153" height="34.267" fill="#fff" />
        </clipPath>
    </defs>
    <g id="Group_97" data-name="Group 97" clip-path="url(#clip-path)">
        <path id="Path_137" data-name="Path 137" d="M11.807,24.265c-.245,1.572.467,3.61-1.543,3.418-2.3-.22-1.416-2.423-1.475-3.936-3.227,1.369-3.711,4.79-1.552,10.519-3.07-.482-6.88-4.776-7.2-9.219a10.61,10.61,0,0,1,1.5-6.378c1.266-2.121,2.477-4.276,3.907-6.753.15,1.772.282,3.35.432,5.129a7.11,7.11,0,0,0,2.823-5.157c.184-2.1.087-4.227.291-6.325C9.261,2.722,10.974.993,13.831,0c-1.73,4.516.511,7.835,2.761,11.221a48.508,48.508,0,0,1,4.627,7.861c2.005,4.787.7,8.959-3.17,11.856a7.556,7.556,0,0,1-.716.4c.16-.745.264-1.335.414-1.913a8.551,8.551,0,0,0-1.582-7.4c-1.231-1.733-2.3-3.53-1.869-6.057a4.755,4.755,0,0,0-1.006,4.9c.46,1.654,1.153,3.245,1.573,4.907.574,2.271-.188,3.9-2.456,5.365.912-2.4,1.059-4.579-.6-6.879" transform="translate(0)" fill="#fff" />
    </g>
</svg>  