<svg xmlns="http://www.w3.org/2000/svg" width="11.818" height="18.871" viewBox="0 0 11.818 18.871">
    <g id="Group_138" data-name="Group 138" transform="translate(0 0)">
        <path id="Path_204" data-name="Path 204" d="M65.617,78.74a.284.284,0,0,1-.284-.284V73.873a.284.284,0,0,1,.14-.245L71.1,70.31a.284.284,0,0,1,.376.409l-5.625,7.9a.284.284,0,0,1-.231.119m.284-4.7v3.532l4.335-6.089Z" transform="translate(-59.708 -59.869)" fill="#fff" />
        <path id="Path_205" data-name="Path 205" d="M65.617,57.581a.284.284,0,0,1-.284-.284V51.416a.284.284,0,0,1,.4-.259l5.625,2.555a.284.284,0,0,1,.027.5l-5.625,3.327a.283.283,0,0,1-.145.04m.284-5.725V56.8L70.628,54Z" transform="translate(-59.708 -44.354)" fill="#fff" />
        <path id="Path_206" data-name="Path 206" d="M71.242,25.233a.289.289,0,0,1-.117-.025L65.5,22.654a.284.284,0,0,1-.167-.259V15.617a.284.284,0,0,1,.527-.146L71.485,24.8a.284.284,0,0,1-.243.43M65.9,22.212l4.626,2.1L65.9,16.639Z" transform="translate(-59.708 -15.333)" fill="#fff" />
        <path id="Path_207" data-name="Path 207" d="M41.533,78.74a.284.284,0,0,1-.231-.119l-5.625-7.9a.284.284,0,0,1,.376-.409l5.625,3.318a.284.284,0,0,1,.14.245v4.582a.284.284,0,0,1-.284.284m-4.619-7.262,4.335,6.089V74.036Z" transform="translate(-35.624 -59.87)" fill="#fff" />
        <path id="Path_208" data-name="Path 208" d="M41.533,57.581a.282.282,0,0,1-.144-.04l-5.625-3.327a.284.284,0,0,1,.027-.5l5.625-2.555a.284.284,0,0,1,.4.259V57.3a.284.284,0,0,1-.284.284M36.522,54l4.727,2.8V51.857Z" transform="translate(-35.624 -44.354)" fill="#fff" />
        <path id="Path_209" data-name="Path 209" d="M35.909,25.233a.284.284,0,0,1-.243-.431L41.29,15.47a.284.284,0,0,1,.527.147v6.778a.284.284,0,0,1-.167.259l-5.625,2.555a.285.285,0,0,1-.117.025m5.341-8.6-4.626,7.674,4.626-2.1Z" transform="translate(-35.624 -15.333)" fill="#fff" />
    </g>
</svg>