<svg id="Group_131" data-name="Group 131" xmlns="http://www.w3.org/2000/svg" xmlns:xlink="http://www.w3.org/1999/xlink" width="34" height="34" viewBox="0 0 34 34">
    <defs>
        <clipPath id="clip-path">
            <rect id="Rectangle_439" data-name="Rectangle 439" width="34" height="34" transform="translate(0)" fill="none" />
        </clipPath>
    </defs>
    <g id="Group_130" data-name="Group 130" clip-path="url(#clip-path)">
        <path id="Path_156" data-name="Path 156" d="M124.206,55.678a.206.206,0,0,1-.206-.206V52.443a.206.206,0,0,1,.1-.177l3.717-2.193a.206.206,0,0,1,.273.3l-3.717,5.221a.206.206,0,0,1-.168.086m.206-3.117v2.266l2.782-3.907Z" transform="translate(-106.653 -43.17)" fill="#fff" />
        <path id="Path_157" data-name="Path 157" d="M124.206,36.911A.206.206,0,0,1,124,36.7V32.818a.206.206,0,0,1,.291-.187l3.717,1.688a.206.206,0,0,1,.02.365l-3.717,2.2a.207.207,0,0,1-.1.029m.206-3.773v3.206l3.066-1.814Z" transform="translate(-106.653 -28.132)" fill="#fff" />
        <path id="Path_158" data-name="Path 158" d="M127.923,6.579a.2.2,0,0,1-.085-.018l-3.717-1.688A.206.206,0,0,1,124,4.685V.206A.206.206,0,0,1,124.383.1L128.1,6.267a.206.206,0,0,1-.177.312m-3.511-2.027L127.4,5.912,124.412.947Z" transform="translate(-106.653 0)" fill="#fff" />
        <path id="Path_159" data-name="Path 159" d="M100.859,55.679a.206.206,0,0,1-.168-.087l-3.717-5.221a.206.206,0,0,1,.273-.3l3.717,2.193a.206.206,0,0,1,.1.177v3.028a.206.206,0,0,1-.143.2.2.2,0,0,1-.063.01m-2.988-4.758,2.782,3.907V52.562Z" transform="translate(-83.306 -43.171)" fill="#fff" />
        <path id="Path_160" data-name="Path 160" d="M100.859,36.912a.206.206,0,0,1-.1-.029l-3.717-2.2a.206.206,0,0,1,.02-.365l3.717-1.688a.206.206,0,0,1,.291.188v3.887a.206.206,0,0,1-.206.206m-3.272-2.381,3.066,1.814V33.138Z" transform="translate(-83.306 -28.133)" fill="#fff" />
        <path id="Path_161" data-name="Path 161" d="M97.142,6.579a.206.206,0,0,1-.177-.312L100.683.1a.206.206,0,0,1,.383.106V4.685a.206.206,0,0,1-.121.188L97.227,6.561a.206.206,0,0,1-.085.018M100.653.947,97.661,5.911l2.992-1.359Z" transform="translate(-83.306 0)" fill="#fff" />
        <path id="Path_162" data-name="Path 162" d="M92.439,71.251a.206.206,0,0,1-.146-.06l-1.656-1.656a.206.206,0,0,1-.054-.2l.879-3.407a.206.206,0,0,1,.4.02l.777,5.062a.206.206,0,0,1-.2.237m-1.427-1.924,1.128,1.128-.529-3.448Z" transform="translate(-77.821 -56.742)" fill="#fff" />
        <path id="Path_163" data-name="Path 163" d="M72.183,64.812a.206.206,0,0,1-.146-.06l-2.311-2.311A.206.206,0,0,1,69.8,62.1L73.013,60.9a.206.206,0,0,1,.272.244l-.9,3.517a.206.206,0,0,1-.2.155m-1.939-2.437,1.829,1.829.715-2.784Z" transform="translate(-59.782 -52.521)" fill="#fff" />
        <path id="Path_164" data-name="Path 164" d="M53.145,53.353a.206.206,0,0,1-.146-.06l-2.663-2.663a.206.206,0,0,1,.2-.346l5.877,1.457a.206.206,0,0,1,.023.393L53.218,53.34a.2.2,0,0,1-.072.013m-1.993-2.491L53.2,52.907l2.468-.927Z" transform="translate(-43.055 -43.372)" fill="#fff" />
        <path id="Path_165" data-name="Path 165" d="M71.045,92.646l-.031,0-5.062-.777a.206.206,0,0,1-.02-.4l3.407-.879a.206.206,0,0,1,.2.054l1.656,1.656a.206.206,0,0,1-.146.352m-4.038-1.034,3.448.529-1.128-1.128Z" transform="translate(-56.427 -78.137)" fill="#fff" />
        <path id="Path_166" data-name="Path 166" d="M61.089,73.292a.206.206,0,0,1-.193-.278L62.1,69.8a.206.206,0,0,1,.339-.073l2.311,2.311a.206.206,0,0,1-.095.345l-3.517.9a.211.211,0,0,1-.051.006m1.287-3.048-.955,2.544,2.784-.715Z" transform="translate(-52.205 -60.097)" fill="#fff" />
        <path id="Path_167" data-name="Path 167" d="M51.94,56.566h-.012a.206.206,0,0,1-.188-.156l-1.457-5.877a.206.206,0,0,1,.346-.2L53.292,53a.206.206,0,0,1,.047.218l-1.206,3.214a.206.206,0,0,1-.193.134m-1.078-5.413,1.119,4.514.927-2.468Z" transform="translate(-43.056 -43.371)" fill="#fff" />
        <path id="Path_168" data-name="Path 168" d="M55.471,101.066H52.443a.206.206,0,0,1-.177-.1l-2.193-3.717a.206.206,0,0,1,.3-.273l5.222,3.717a.206.206,0,0,1-.12.374m-2.911-.412h2.266L50.92,97.872Z" transform="translate(-42.855 -83.622)" fill="#fff" />
        <path id="Path_169" data-name="Path 169" d="M36.7,101.066H32.817a.206.206,0,0,1-.187-.291l1.688-3.717a.206.206,0,0,1,.365-.02l2.2,3.717a.206.206,0,0,1-.177.311m-3.567-.412h3.206L34.53,97.588Z" transform="translate(-27.817 -83.622)" fill="#fff" />
        <path id="Path_170" data-name="Path 170" d="M4.685,101.067H.206a.206.206,0,0,1-.106-.383l6.167-3.717a.206.206,0,0,1,.294.262l-1.688,3.717a.206.206,0,0,1-.188.121m-3.738-.412H4.553l1.359-2.992Z" transform="translate(0.315 -83.623)" fill="#fff" />
        <path id="Path_171" data-name="Path 171" d="M50.25,128.129a.206.206,0,0,1-.178-.311l2.193-3.717a.206.206,0,0,1,.177-.1h3.028a.206.206,0,0,1,.12.374l-5.222,3.717a.2.2,0,0,1-.119.038m2.311-3.717-1.641,2.782,3.907-2.782Z" transform="translate(-42.855 -106.968)" fill="#fff" />
        <path id="Path_172" data-name="Path 172" d="M34.506,128.129h-.011a.206.206,0,0,1-.176-.12l-1.688-3.717a.206.206,0,0,1,.187-.291H36.7a.206.206,0,0,1,.177.311l-2.2,3.717a.206.206,0,0,1-.177.1m-1.368-3.717,1.392,3.066,1.814-3.066Z" transform="translate(-27.817 -106.968)" fill="#fff" />
        <path id="Path_173" data-name="Path 173" d="M6.374,128.129a.208.208,0,0,1-.106-.029L.1,124.383A.206.206,0,0,1,.206,124H4.685a.206.206,0,0,1,.188.121l1.688,3.717a.206.206,0,0,1-.188.291M.947,124.412,5.912,127.4l-1.359-2.992Z" transform="translate(0.315 -106.968)" fill="#fff" />
        <path id="Path_174" data-name="Path 174" d="M69.39,147.436a.2.2,0,0,1-.051-.006l-3.407-.879a.206.206,0,0,1,.02-.4l5.062-.777a.206.206,0,0,1,.177.349l-1.656,1.656a.206.206,0,0,1-.146.06M67.007,146.4l2.32.6,1.128-1.128Z" transform="translate(-56.427 -125.402)" fill="#fff" />
        <path id="Path_175" data-name="Path 175" d="M62.295,158.563a.2.2,0,0,1-.044,0,.206.206,0,0,1-.149-.129L60.9,155.216a.206.206,0,0,1,.244-.272l3.517.9a.206.206,0,0,1,.095.345L62.44,158.5a.206.206,0,0,1-.146.06m-.875-3.122.955,2.544,1.829-1.829Z" transform="translate(-52.204 -133.656)" fill="#fff" />
        <path id="Path_176" data-name="Path 176" d="M50.483,161.226a.206.206,0,0,1-.2-.256l1.457-5.877a.206.206,0,0,1,.393-.023l1.206,3.214a.206.206,0,0,1-.047.218l-2.663,2.663a.206.206,0,0,1-.146.06m1.5-5.389-1.119,4.514,2.045-2.045Z" transform="translate(-43.056 -133.656)" fill="#fff" />
        <path id="Path_177" data-name="Path 177" d="M91.662,150.843a.206.206,0,0,1-.2-.155l-.879-3.406a.206.206,0,0,1,.054-.2l1.656-1.656a.206.206,0,0,1,.349.177l-.777,5.062a.206.206,0,0,1-.193.175h-.01m-.65-3.55.6,2.32.529-3.448Z" transform="translate(-77.821 -125.402)" fill="#fff" />
        <path id="Path_178" data-name="Path 178" d="M73.086,165.439a.2.2,0,0,1-.072-.013L69.8,164.22a.206.206,0,0,1-.073-.339l2.311-2.311a.206.206,0,0,1,.345.094l.9,3.517a.206.206,0,0,1-.2.257m-2.842-1.493,2.544.955-.715-2.784Z" transform="translate(-59.782 -139.326)" fill="#fff" />
        <path id="Path_179" data-name="Path 179" d="M50.483,181.41a.206.206,0,0,1-.146-.352L53,178.4a.206.206,0,0,1,.218-.047l3.214,1.206a.206.206,0,0,1-.023.393L50.533,181.4a.211.211,0,0,1-.05.006m2.715-2.63-2.045,2.045,4.514-1.119Z" transform="translate(-43.056 -153.84)" fill="#fff" />
        <path id="Path_180" data-name="Path 180" d="M97.142,165.575a.206.206,0,0,1-.168-.326l3.717-5.221a.206.206,0,0,1,.374.119v3.028a.206.206,0,0,1-.1.177l-3.717,2.193a.207.207,0,0,1-.1.029m3.511-4.783L97.871,164.7l2.782-1.641Zm.206,2.384h0Z" transform="translate(-83.306 -137.973)" fill="#fff" />
        <path id="Path_181" data-name="Path 181" d="M100.86,191.389a.205.205,0,0,1-.085-.018l-3.717-1.688a.206.206,0,0,1-.02-.365l3.717-2.2a.206.206,0,0,1,.311.177v3.887a.206.206,0,0,1-.206.206m-3.272-1.918,3.066,1.392v-3.206Z" transform="translate(-83.307 -161.392)" fill="#fff" />
        <path id="Path_182" data-name="Path 182" d="M100.86,209.678a.206.206,0,0,1-.176-.1l-3.717-6.167a.206.206,0,0,1,.262-.294l3.717,1.688a.206.206,0,0,1,.121.188v4.479a.206.206,0,0,1-.151.2.2.2,0,0,1-.055.008m-3.2-5.911,2.992,4.964v-3.606Z" transform="translate(-83.307 -175.203)" fill="#fff" />
        <path id="Path_183" data-name="Path 183" d="M127.923,165.576a.206.206,0,0,1-.1-.029l-3.717-2.193a.206.206,0,0,1-.1-.177v-3.028a.206.206,0,0,1,.374-.12l3.717,5.221a.206.206,0,0,1-.168.326m-3.511-2.517,2.782,1.641-2.782-3.907Z" transform="translate(-106.653 -137.974)" fill="#fff" />
        <path id="Path_184" data-name="Path 184" d="M124.206,191.389a.206.206,0,0,1-.206-.206V187.3a.206.206,0,0,1,.311-.177l3.717,2.2a.206.206,0,0,1-.02.365l-3.717,1.688a.205.205,0,0,1-.085.018m.206-3.732v3.206l3.066-1.392Z" transform="translate(-106.653 -161.392)" fill="#fff" />
        <path id="Path_185" data-name="Path 185" d="M124.206,209.679a.206.206,0,0,1-.206-.206v-4.479a.206.206,0,0,1,.121-.187l3.717-1.688a.206.206,0,0,1,.262.294l-3.717,6.167a.206.206,0,0,1-.176.1m.206-4.553v3.606l2.992-4.964Z" transform="translate(-106.653 -175.203)" fill="#fff" />
        <path id="Path_186" data-name="Path 186" d="M146.352,150.842h-.01a.206.206,0,0,1-.193-.175l-.777-5.062a.206.206,0,0,1,.349-.177l1.656,1.656a.206.206,0,0,1,.054.2l-.879,3.406a.206.206,0,0,1-.2.155m-.478-4.678.529,3.448.6-2.32Z" transform="translate(-125.086 -125.401)" fill="#fff" />
        <path id="Path_187" data-name="Path 187" d="M155.142,165.439a.206.206,0,0,1-.2-.257l.9-3.517a.206.206,0,0,1,.345-.094l2.311,2.311a.206.206,0,0,1-.073.339l-3.214,1.206a.207.207,0,0,1-.073.013m1.013-3.322-.715,2.784,2.544-.955Z" transform="translate(-133.34 -139.326)" fill="#fff" />
        <path id="Path_188" data-name="Path 188" d="M161.019,181.409a.206.206,0,0,1-.05-.006l-5.877-1.457a.206.206,0,0,1-.023-.393l3.214-1.207a.206.206,0,0,1,.218.047l2.663,2.663a.206.206,0,0,1-.146.352m-5.183-1.7,4.514,1.119L158.3,178.78Z" transform="translate(-133.34 -153.84)" fill="#fff" />
        <path id="Path_189" data-name="Path 189" d="M147.23,147.437a.206.206,0,0,1-.146-.06l-1.656-1.656a.206.206,0,0,1,.177-.349l5.062.777a.206.206,0,0,1,.02.4l-3.407.879a.205.205,0,0,1-.051.007m-1.065-1.563L147.292,147l2.32-.6Z" transform="translate(-125.086 -125.402)" fill="#fff" />
        <path id="Path_190" data-name="Path 190" d="M164.026,158.564a.206.206,0,0,1-.146-.06l-2.311-2.311a.206.206,0,0,1,.094-.345l3.517-.9a.206.206,0,0,1,.244.272l-1.206,3.214a.206.206,0,0,1-.149.129.2.2,0,0,1-.044,0m-1.91-2.407,1.829,1.829.955-2.544Z" transform="translate(-139.01 -133.657)" fill="#fff" />
        <path id="Path_191" data-name="Path 191" d="M181.2,161.225a.206.206,0,0,1-.146-.06l-2.663-2.663a.206.206,0,0,1-.047-.218l1.206-3.214a.206.206,0,0,1,.393.023l1.457,5.877a.206.206,0,0,1-.2.256M178.78,158.3l2.045,2.045-1.119-4.514Z" transform="translate(-153.524 -133.655)" fill="#fff" />
        <path id="Path_192" data-name="Path 192" d="M165.368,128.129a.205.205,0,0,1-.12-.038l-5.221-3.717a.206.206,0,0,1,.119-.374h3.028a.206.206,0,0,1,.177.1l2.193,3.717a.206.206,0,0,1-.177.311m-4.577-3.717,3.907,2.782-1.641-2.782Z" transform="translate(-137.657 -106.968)" fill="#fff" />
        <path id="Path_193" data-name="Path 193" d="M189.494,128.129a.206.206,0,0,1-.177-.1l-2.2-3.717A.206.206,0,0,1,187.3,124h3.887a.206.206,0,0,1,.188.291l-1.688,3.717a.206.206,0,0,1-.176.12h-.011m-1.837-3.717,1.814,3.066,1.392-3.066Z" transform="translate(-161.076 -106.968)" fill="#fff" />
        <path id="Path_194" data-name="Path 194" d="M203.3,128.129a.206.206,0,0,1-.188-.291l1.688-3.717a.206.206,0,0,1,.188-.121h4.479a.206.206,0,0,1,.106.383L203.41,128.1a.208.208,0,0,1-.106.029m1.821-3.717-1.359,2.992,4.964-2.992Z" transform="translate(-174.886 -106.968)" fill="#fff" />
        <path id="Path_195" data-name="Path 195" d="M163.175,101.066h-3.028a.206.206,0,0,1-.119-.374l5.221-3.717a.206.206,0,0,1,.3.273l-2.193,3.717a.206.206,0,0,1-.177.1m-2.384-.412h2.266l1.641-2.782Z" transform="translate(-137.657 -83.622)" fill="#fff" />
        <path id="Path_196" data-name="Path 196" d="M191.182,101.067H187.3a.206.206,0,0,1-.177-.311l2.2-3.717a.209.209,0,0,1,.188-.1.206.206,0,0,1,.176.12l1.688,3.717a.206.206,0,0,1-.188.291m-3.526-.412h3.206l-1.392-3.066Z" transform="translate(-161.076 -83.623)" fill="#fff" />
        <path id="Path_197" data-name="Path 197" d="M209.471,101.066h-4.479a.206.206,0,0,1-.188-.121l-1.688-3.717a.206.206,0,0,1,.294-.262l6.167,3.717a.206.206,0,0,1-.106.383m-4.347-.412h3.606l-4.964-2.992Z" transform="translate(-174.886 -83.622)" fill="#fff" />
        <path id="Path_198" data-name="Path 198" d="M145.574,92.646a.206.206,0,0,1-.146-.352l1.656-1.656a.206.206,0,0,1,.2-.054l3.407.879a.206.206,0,0,1-.02.4l-5.062.777-.031,0m1.718-1.633-1.128,1.128,3.448-.529Z" transform="translate(-125.086 -78.137)" fill="#fff" />
        <path id="Path_199" data-name="Path 199" d="M165.232,73.291a.21.21,0,0,1-.051-.006l-3.517-.9a.206.206,0,0,1-.094-.345l2.311-2.311a.206.206,0,0,1,.339.073l1.206,3.214a.206.206,0,0,1-.193.279m-3.116-1.219,2.784.715-.955-2.544Z" transform="translate(-139.01 -60.097)" fill="#fff" />
        <path id="Path_200" data-name="Path 200" d="M179.747,56.567a.206.206,0,0,1-.193-.134l-1.206-3.214a.206.206,0,0,1,.047-.218l2.663-2.663a.206.206,0,0,1,.346.2l-1.457,5.877a.206.206,0,0,1-.188.156h-.012M178.78,53.2l.927,2.468,1.119-4.514Z" transform="translate(-153.524 -43.372)" fill="#fff" />
        <path id="Path_201" data-name="Path 201" d="M145.574,71.251a.206.206,0,0,1-.2-.237l.777-5.062a.206.206,0,0,1,.4-.02l.879,3.406a.206.206,0,0,1-.054.2l-1.656,1.656a.206.206,0,0,1-.146.06m.829-4.245-.529,3.448L147,69.327Z" transform="translate(-125.086 -56.742)" fill="#fff" />
        <path id="Path_202" data-name="Path 202" d="M156.046,64.812a.206.206,0,0,1-.2-.155l-.9-3.517a.206.206,0,0,1,.272-.244l3.214,1.206a.206.206,0,0,1,.073.339l-2.311,2.311a.206.206,0,0,1-.146.06m-.6-3.392.715,2.784,1.829-1.829Z" transform="translate(-133.34 -52.52)" fill="#fff" />
        <path id="Path_203" data-name="Path 203" d="M158.356,53.352a.207.207,0,0,1-.072-.013l-3.214-1.206a.206.206,0,0,1,.023-.393l5.877-1.457a.206.206,0,0,1,.2.346L158.5,53.292a.206.206,0,0,1-.146.06m-2.52-1.372,2.468.927,2.045-2.045Z" transform="translate(-133.34 -43.371)" fill="#fff" />
    </g>
</svg>  