<svg id="Group_129" data-name="Group 129" xmlns="http://www.w3.org/2000/svg" xmlns:xlink="http://www.w3.org/1999/xlink" width="24.235" height="33.264" viewBox="0 0 24.235 33.264">
    <defs>
        <clipPath id="clip-path">
            <rect id="Rectangle_438" data-name="Rectangle 438" width="24.235" height="33.264" fill="none" />
        </clipPath>
    </defs>
    <g id="Group_128" data-name="Group 128" clip-path="url(#clip-path)">
        <path id="Path_141" data-name="Path 141" d="M65.617,78.74a.284.284,0,0,1-.284-.284V73.873a.284.284,0,0,1,.14-.245L71.1,70.31a.284.284,0,0,1,.376.409l-5.625,7.9a.284.284,0,0,1-.231.119m.284-4.7v3.532l4.335-6.089Z" transform="translate(-52.963 -56.966)" fill="#fff" />
        <path id="Path_142" data-name="Path 142" d="M65.617,57.581a.284.284,0,0,1-.284-.284V51.416a.284.284,0,0,1,.4-.259l5.625,2.555a.284.284,0,0,1,.027.5l-5.625,3.327a.283.283,0,0,1-.145.04m.284-5.725V56.8L70.628,54Z" transform="translate(-52.963 -41.451)" fill="#fff" />
        <path id="Path_143" data-name="Path 143" d="M71.242,25.233a.289.289,0,0,1-.117-.025L65.5,22.654a.284.284,0,0,1-.167-.259V15.617a.284.284,0,0,1,.527-.146L71.485,24.8a.284.284,0,0,1-.243.43M65.9,22.212l4.626,2.1L65.9,16.639Z" transform="translate(-52.963 -12.43)" fill="#fff" />
        <path id="Path_144" data-name="Path 144" d="M41.533,78.74a.284.284,0,0,1-.231-.119l-5.625-7.9a.284.284,0,0,1,.376-.409l5.625,3.318a.284.284,0,0,1,.14.245v4.582a.284.284,0,0,1-.284.284m-4.619-7.262,4.335,6.089V74.036Z" transform="translate(-28.879 -56.966)" fill="#fff" />
        <path id="Path_145" data-name="Path 145" d="M41.533,57.581a.282.282,0,0,1-.144-.04l-5.625-3.327a.284.284,0,0,1,.027-.5l5.625-2.555a.284.284,0,0,1,.4.259V57.3a.284.284,0,0,1-.284.284M36.522,54l4.727,2.8V51.857Z" transform="translate(-28.879 -41.451)" fill="#fff" />
        <path id="Path_146" data-name="Path 146" d="M35.909,25.233a.284.284,0,0,1-.243-.431L41.29,15.47a.284.284,0,0,1,.527.147v6.778a.284.284,0,0,1-.167.259l-5.625,2.555a.285.285,0,0,1-.117.025m5.341-8.6-4.626,7.674,4.626-2.1Z" transform="translate(-28.88 -12.43)" fill="#fff" />
        <path id="Path_147" data-name="Path 147" d="M20.353,20.637H.284A.284.284,0,0,1,0,20.353V.284A.284.284,0,0,1,.284,0H20.353a.284.284,0,0,1,.284.284V20.353a.284.284,0,0,1-.284.284M.568,20.069h19.5V.568H.568Z" fill="#fff" />
        <path id="Path_148" data-name="Path 148" d="M39.353,39.637H19.284A.284.284,0,0,1,19,39.353V19.284A.284.284,0,0,1,19.284,19H39.353a.284.284,0,0,1,.284.284V39.353a.284.284,0,0,1-.284.284m-19.785-.568h19.5v-19.5h-19.5Z" transform="translate(-15.403 -15.403)" fill="#fff" />
        <path id="Path_149" data-name="Path 149" d="M3.881,24.234a.284.284,0,0,1-.2-.083l-3.6-3.6a.284.284,0,0,1-.083-.2V.283a.284.284,0,0,1,.485-.2l3.6,3.6a.284.284,0,0,1,.083.2V23.95a.284.284,0,0,1-.284.284m-3.313-4L3.6,23.265V4L.568.969Z" transform="translate(0 0.001)" fill="#fff" />
        <path id="Path_150" data-name="Path 150" d="M109.881,24.234a.284.284,0,0,1-.2-.083l-3.6-3.6a.284.284,0,0,1-.083-.2V.283a.284.284,0,0,1,.485-.2l3.6,3.6a.284.284,0,0,1,.083.2V23.95a.284.284,0,0,1-.284.284m-3.313-4,3.029,3.029V4L106.568.969Z" transform="translate(-85.931 0.001)" fill="#fff" />
        <path id="Path_151" data-name="Path 151" d="M36.562,128.649a.284.284,0,0,1-.284-.284V125.3a.284.284,0,1,1,.568,0v3.061a.284.284,0,0,1-.284.284" transform="translate(-29.409 -101.349)" fill="#fff" />
        <path id="Path_152" data-name="Path 152" d="M89.006,128.649a.284.284,0,0,1-.284-.284V125.3a.284.284,0,1,1,.568,0v3.061a.284.284,0,0,1-.284.284" transform="translate(-71.924 -101.349)" fill="#fff" />
        <path id="Path_153" data-name="Path 153" d="M49.673,131.754a.284.284,0,0,1-.284-.284v-5.333a.284.284,0,1,1,.568,0v5.333a.284.284,0,0,1-.284.284" transform="translate(-40.038 -102.025)" fill="#fff" />
        <path id="Path_154" data-name="Path 154" d="M62.784,134.748a.284.284,0,0,1-.284-.284v-8.993a.284.284,0,1,1,.568,0v8.993a.284.284,0,0,1-.284.284" transform="translate(-50.667 -101.485)" fill="#fff" />
        <path id="Path_155" data-name="Path 155" d="M75.9,130.2a.284.284,0,0,1-.284-.284v-3.944a.284.284,0,1,1,.568,0v3.944a.284.284,0,0,1-.284.284" transform="translate(-61.295 -101.89)" fill="#fff" />
    </g>
</svg>  