<svg id="Group_116" data-name="Group 116" xmlns="http://www.w3.org/2000/svg" xmlns:xlink="http://www.w3.org/1999/xlink" width="37.538" height="37.538" viewBox="0 0 37.538 37.538">
    <defs>
      <clipPath id="clip-path">
        <rect id="Rectangle_433" data-name="Rectangle 433" width="37.538" height="37.538" fill="none"/>
      </clipPath>
    </defs>
    <g id="Group_115" data-name="Group 115" clip-path="url(#clip-path)">
      <path id="Path_140" data-name="Path 140" d="M18.769,37.538A18.74,18.74,0,0,1,8.527,34.5,3.951,3.951,0,0,1,3.033,29.01a18.805,18.805,0,0,1,0-20.483A3.951,3.951,0,0,1,8.527,3.034a18.805,18.805,0,0,1,20.483,0A3.951,3.951,0,0,1,34.5,8.528a18.805,18.805,0,0,1,0,20.483A3.951,3.951,0,0,1,29.01,34.5a18.74,18.74,0,0,1-10.241,3.034M9.681,33.274a17.142,17.142,0,0,0,18.174,0,3.952,3.952,0,0,1,5.418-5.418,17.142,17.142,0,0,0,0-18.174,3.952,3.952,0,0,1-5.418-5.418,17.143,17.143,0,0,0-18.174,0A3.952,3.952,0,0,1,4.264,9.682a17.143,17.143,0,0,0,0,18.175,3.952,3.952,0,0,1,5.418,5.418m19.959-.393a2.291,2.291,0,0,0,3.24-3.24l.537-.53-.537.53a2.291,2.291,0,1,0-3.24,3.24l-.53.537ZM4.657,29.641h0a2.291,2.291,0,1,0,1.63-.682,2.277,2.277,0,0,0-1.63.682m3.795,3.8.028.028ZM29.641,4.657A2.291,2.291,0,1,0,32.88,7.9l.59.583L32.88,7.9a2.291,2.291,0,0,0-3.24-3.24ZM4.657,7.9A2.291,2.291,0,1,0,7.9,4.657l.53-.537-.53.537A2.291,2.291,0,0,0,4.657,7.9l-.59.583ZM25.839,27.4H11.7V15.6h2.34V13.309a4.73,4.73,0,0,1,9.46,0V15.6h2.34ZM13.357,25.741H24.18V17.258H14.868v0H13.357ZM15.7,15.6H21.84V13.309a3.071,3.071,0,0,0-6.142,0Zm3.9,7.85H17.939v-3.9H19.6Z" transform="translate(0 0)" fill="#fff"/>
    </g>
  </svg>  