<?xml version="1.0" encoding="utf-8"?>
<svg width="374.067" height="45.812" viewBox="0 0 374.067 45.812" xmlns="http://www.w3.org/2000/svg">
  <defs>
    <clipPath id="clip-path">
      <rect id="Rectangle_14" data-name="Rectangle 14" width="374.067" height="45.812" transform="translate(0 0)" fill="none"/>
    </clipPath>
  </defs>
  <g id="Logo" transform="translate(0 0)">
    <path id="Path_9" data-name="Path 9" d="M61.111,9.033H49.3V5.962H76.471V9.033H64.663V39.561H61.111Z" fill="#fff"/>
    <g id="Group_22" data-name="Group 22">
      <g id="Group_21" data-name="Group 21" clip-path="url(#clip-path)">
        <path id="Path_10" data-name="Path 10" d="M105.079,39.562l-7.68-10.8a24.344,24.344,0,0,1-2.688.143H85.687V39.562H82.135V5.962H94.711q6.432,0,10.08,3.071a10.459,10.459,0,0,1,3.648,8.449,10.928,10.928,0,0,1-1.992,6.648,11.036,11.036,0,0,1-5.688,3.912l8.208,11.52Zm-2.832-15.888a7.63,7.63,0,0,0,2.64-6.192,7.671,7.671,0,0,0-2.64-6.264q-2.64-2.184-7.632-2.185H85.687V25.882h8.928q4.992,0,7.632-2.208" fill="#fff"/>
        <path id="Path_11" data-name="Path 11" d="M120.2,36.106q-3.648-3.744-3.648-10.9V5.962H120.1v19.1q0,5.856,2.64,8.736t7.632,2.88q5.04,0,7.68-2.88t2.64-8.736V5.962h3.456V25.21q0,7.152-3.624,10.9T130.374,39.85q-6.528,0-10.176-3.744" fill="#fff"/>
        <path id="Path_12" data-name="Path 12" d="M178.614,36.489v3.072h-23.76V5.962h23.04V9.033H158.406V20.985h17.376V24.01H158.406V36.489Z" fill="#fff"/>
        <path id="Path_13" data-name="Path 13" d="M193.253,12.2v8.88h15.552v6.24H193.253v12.24h-7.776V5.962h25.392V12.2Z" fill="#fff"/>
        <path id="Path_14" data-name="Path 14" d="M237.557,39.562l-6.48-9.36h-7.152v9.36H216.15V5.962h14.543a18.666,18.666,0,0,1,7.752,1.488,11.517,11.517,0,0,1,5.064,4.224,11.637,11.637,0,0,1,1.776,6.48,11.4,11.4,0,0,1-1.8,6.456,11.409,11.409,0,0,1-5.112,4.152l7.536,10.8ZM235.589,13.81a8.168,8.168,0,0,0-5.328-1.512h-6.336V24.01h6.336a8.078,8.078,0,0,0,5.328-1.536,5.336,5.336,0,0,0,1.824-4.32,5.322,5.322,0,0,0-1.824-4.344" fill="#fff"/>
        <path id="Path_15" data-name="Path 15" d="M277.444,33.321v6.24H251.428V5.962H276.82V12.2H259.156v7.3h15.6v6.049h-15.6v7.775Z" fill="#fff"/>
        <path id="Path_16" data-name="Path 16" d="M309.652,33.321v6.24H283.636V5.962h25.392V12.2H291.364v7.3h15.6v6.049h-15.6v7.775Z" fill="#fff"/>
        <path id="Path_17" data-name="Path 17" d="M343.06,33.226v6.336H313.684v-5.04L332.116,12.3H314.068V5.962H342.34V11L323.956,33.226Z" fill="#fff"/>
        <path id="Path_18" data-name="Path 18" d="M374.067,33.321v6.24H348.051V5.962h25.392V12.2H355.779v7.3h15.6v6.049h-15.6v7.775Z" fill="#fff"/>
        <path id="Path_19" data-name="Path 19" d="M27.908,8.291l-5,7.03-5-7.03,5-8.291Z" fill="#fff"/>
        <path id="Path_20" data-name="Path 20" d="M10.833,10.827l1.737,7.006L18.91,18.9l-1.071-6.34Z" fill="#fff"/>
        <path id="Path_21" data-name="Path 21" d="M0,22.9l8.291,5,7.03-5-7.03-5Z" fill="#fff"/>
        <path id="Path_22" data-name="Path 22" d="M10.827,34.979l7.006-1.737L18.9,26.9l-6.34,1.071Z" fill="#fff"/>
        <path id="Path_23" data-name="Path 23" d="M22.9,45.812l5-8.291-5-7.03-5,7.03Z" fill="#fff"/>
        <path id="Path_24" data-name="Path 24" d="M34.979,34.985l-1.737-7.006L26.9,26.908l1.071,6.34Z" fill="#fff"/>
        <path id="Path_25" data-name="Path 25" d="M45.812,22.911l-8.291-5-7.03,5,7.03,5Z" fill="#fff"/>
        <path id="Path_26" data-name="Path 26" d="M34.985,10.832l-7.006,1.737-1.071,6.34,6.34-1.071Z" fill="#fff"/>
      </g>
    </g>
  </g>
</svg>